<svg id="visual" viewBox="0 0 900 600" width="900" height="600" xmlns="http://www.w3.org/2000/svg" xmlns:xlink="http://www.w3.org/1999/xlink" version="1.1"><rect x="0" y="0" width="900" height="600" fill="#51658b"></rect><defs><linearGradient id="grad1_0" x1="33.3%" y1="0%" x2="100%" y2="100%"><stop offset="20%" stop-color="#528cf6" stop-opacity="1"></stop><stop offset="80%" stop-color="#528cf6" stop-opacity="1"></stop></linearGradient></defs><defs><linearGradient id="grad1_1" x1="33.3%" y1="0%" x2="100%" y2="100%"><stop offset="20%" stop-color="#528cf6" stop-opacity="1"></stop><stop offset="80%" stop-color="#5287e6" stop-opacity="1"></stop></linearGradient></defs><defs><linearGradient id="grad1_2" x1="33.3%" y1="0%" x2="100%" y2="100%"><stop offset="20%" stop-color="#5181d7" stop-opacity="1"></stop><stop offset="80%" stop-color="#5287e6" stop-opacity="1"></stop></linearGradient></defs><defs><linearGradient id="grad1_3" x1="33.3%" y1="0%" x2="100%" y2="100%"><stop offset="20%" stop-color="#5181d7" stop-opacity="1"></stop><stop offset="80%" stop-color="#517cc7" stop-opacity="1"></stop></linearGradient></defs><defs><linearGradient id="grad1_4" x1="33.3%" y1="0%" x2="100%" y2="100%"><stop offset="20%" stop-color="#5276b8" stop-opacity="1"></stop><stop offset="80%" stop-color="#517cc7" stop-opacity="1"></stop></linearGradient></defs><defs><linearGradient id="grad1_5" x1="33.3%" y1="0%" x2="100%" y2="100%"><stop offset="20%" stop-color="#5276b8" stop-opacity="1"></stop><stop offset="80%" stop-color="#5270a9" stop-opacity="1"></stop></linearGradient></defs><defs><linearGradient id="grad1_6" x1="33.3%" y1="0%" x2="100%" y2="100%"><stop offset="20%" stop-color="#516b9a" stop-opacity="1"></stop><stop offset="80%" stop-color="#5270a9" stop-opacity="1"></stop></linearGradient></defs><defs><linearGradient id="grad1_7" x1="33.3%" y1="0%" x2="100%" y2="100%"><stop offset="20%" stop-color="#516b9a" stop-opacity="1"></stop><stop offset="80%" stop-color="#51658b" stop-opacity="1"></stop></linearGradient></defs><defs><linearGradient id="grad2_0" x1="0%" y1="0%" x2="66.7%" y2="100%"><stop offset="20%" stop-color="#528cf6" stop-opacity="1"></stop><stop offset="80%" stop-color="#528cf6" stop-opacity="1"></stop></linearGradient></defs><defs><linearGradient id="grad2_1" x1="0%" y1="0%" x2="66.7%" y2="100%"><stop offset="20%" stop-color="#5287e6" stop-opacity="1"></stop><stop offset="80%" stop-color="#528cf6" stop-opacity="1"></stop></linearGradient></defs><defs><linearGradient id="grad2_2" x1="0%" y1="0%" x2="66.7%" y2="100%"><stop offset="20%" stop-color="#5287e6" stop-opacity="1"></stop><stop offset="80%" stop-color="#5181d7" stop-opacity="1"></stop></linearGradient></defs><defs><linearGradient id="grad2_3" x1="0%" y1="0%" x2="66.7%" y2="100%"><stop offset="20%" stop-color="#517cc7" stop-opacity="1"></stop><stop offset="80%" stop-color="#5181d7" stop-opacity="1"></stop></linearGradient></defs><defs><linearGradient id="grad2_4" x1="0%" y1="0%" x2="66.7%" y2="100%"><stop offset="20%" stop-color="#517cc7" stop-opacity="1"></stop><stop offset="80%" stop-color="#5276b8" stop-opacity="1"></stop></linearGradient></defs><defs><linearGradient id="grad2_5" x1="0%" y1="0%" x2="66.7%" y2="100%"><stop offset="20%" stop-color="#5270a9" stop-opacity="1"></stop><stop offset="80%" stop-color="#5276b8" stop-opacity="1"></stop></linearGradient></defs><defs><linearGradient id="grad2_6" x1="0%" y1="0%" x2="66.7%" y2="100%"><stop offset="20%" stop-color="#5270a9" stop-opacity="1"></stop><stop offset="80%" stop-color="#516b9a" stop-opacity="1"></stop></linearGradient></defs><defs><linearGradient id="grad2_7" x1="0%" y1="0%" x2="66.7%" y2="100%"><stop offset="20%" stop-color="#51658b" stop-opacity="1"></stop><stop offset="80%" stop-color="#516b9a" stop-opacity="1"></stop></linearGradient></defs><g transform="translate(900, 0)"><path d="M0 432.7C-55.5 426.7 -111 420.7 -165.6 399.7C-220.1 378.8 -273.7 343 -294.2 294.2C-314.7 245.4 -302.1 183.6 -319.7 132.4C-337.2 81.2 -385 40.6 -432.7 0L0 0Z" fill="#516892"></path><path d="M0 378.6C-48.6 373.3 -97.2 368.1 -144.9 349.8C-192.6 331.5 -239.5 300.1 -257.4 257.4C-275.3 214.7 -264.3 160.6 -279.7 115.9C-295.1 71.1 -336.8 35.5 -378.6 0L0 0Z" fill="#516ea1"></path><path d="M0 324.5C-41.6 320 -83.3 315.5 -124.2 299.8C-165.1 284.1 -205.2 257.2 -220.6 220.6C-236 184 -226.6 137.7 -239.7 99.3C-252.9 60.9 -288.7 30.5 -324.5 0L0 0Z" fill="#5273b0"></path><path d="M0 270.4C-34.7 266.7 -69.4 262.9 -103.5 249.8C-137.6 236.8 -171 214.3 -183.8 183.8C-196.7 153.3 -188.8 114.7 -199.8 82.8C-210.8 50.8 -240.6 25.4 -270.4 0L0 0Z" fill="#5179c0"></path><path d="M0 216.3C-27.8 213.3 -55.5 210.3 -82.8 199.9C-110.1 189.4 -136.8 171.5 -147.1 147.1C-157.3 122.7 -151 91.8 -159.8 66.2C-168.6 40.6 -192.5 20.3 -216.3 0L0 0Z" fill="#517ecf"></path><path d="M0 162.2C-20.8 160 -41.6 157.7 -62.1 149.9C-82.5 142.1 -102.6 128.6 -110.3 110.3C-118 92 -113.3 68.8 -119.9 49.7C-126.5 30.5 -144.4 15.2 -162.2 0L0 0Z" fill="#5184df"></path><path d="M0 108.2C-13.9 106.7 -27.8 105.2 -41.4 99.9C-55 94.7 -68.4 85.7 -73.5 73.5C-78.7 61.3 -75.5 45.9 -79.9 33.1C-84.3 20.3 -96.2 10.2 -108.2 0L0 0Z" fill="#5289ee"></path><path d="M0 54.1C-6.9 53.3 -13.9 52.6 -20.7 50C-27.5 47.4 -34.2 42.9 -36.8 36.8C-39.3 30.7 -37.8 22.9 -40 16.6C-42.2 10.2 -48.1 5.1 -54.1 0L0 0Z" fill="#528cf6"></path></g><g transform="translate(0, 600)"><path d="M0 -432.7C64.5 -432.6 129 -432.5 163.8 -395.4C198.6 -358.3 203.7 -284.1 244.7 -244.7C285.6 -205.2 362.4 -200.6 399.7 -165.6C437 -130.6 434.9 -65.3 432.7 0L0 0Z" fill="#516892"></path><path d="M0 -378.6C56.4 -378.5 112.9 -378.5 143.3 -346C173.8 -313.5 178.2 -248.6 214.1 -214.1C249.9 -179.6 317.1 -175.5 349.8 -144.9C382.4 -114.3 380.5 -57.1 378.6 0L0 0Z" fill="#516ea1"></path><path d="M0 -324.5C48.4 -324.5 96.7 -324.4 122.8 -296.6C148.9 -268.7 152.8 -213.1 183.5 -183.5C214.2 -153.9 271.8 -150.4 299.8 -124.2C327.8 -97.9 326.1 -49 324.5 0L0 0Z" fill="#5273b0"></path><path d="M0 -270.4C40.3 -270.4 80.6 -270.3 102.4 -247.1C124.1 -223.9 127.3 -177.6 152.9 -152.9C178.5 -128.3 226.5 -125.3 249.8 -103.5C273.2 -81.6 271.8 -40.8 270.4 0L0 0Z" fill="#5179c0"></path><path d="M0 -216.3C32.2 -216.3 64.5 -216.3 81.9 -197.7C99.3 -179.1 101.9 -142 122.3 -122.3C142.8 -102.6 181.2 -100.3 199.9 -82.8C218.5 -65.3 217.4 -32.6 216.3 0L0 0Z" fill="#517ecf"></path><path d="M0 -162.2C24.2 -162.2 48.4 -162.2 61.4 -148.3C74.5 -134.4 76.4 -106.5 91.7 -91.7C107.1 -77 135.9 -75.2 149.9 -62.1C163.9 -49 163.1 -24.5 162.2 0L0 0Z" fill="#5184df"></path><path d="M0 -108.2C16.1 -108.2 32.2 -108.1 40.9 -98.9C49.6 -89.6 50.9 -71 61.2 -61.2C71.4 -51.3 90.6 -50.1 99.9 -41.4C109.3 -32.6 108.7 -16.3 108.2 0L0 0Z" fill="#5289ee"></path><path d="M0 -54.1C8.1 -54.1 16.1 -54.1 20.5 -49.4C24.8 -44.8 25.5 -35.5 30.6 -30.6C35.7 -25.7 45.3 -25.1 50 -20.7C54.6 -16.3 54.4 -8.2 54.1 0L0 0Z" fill="#528cf6"></path></g></svg>