<svg id="visual" viewBox="0 0 960 540" width="960" height="540" xmlns="http://www.w3.org/2000/svg" xmlns:xlink="http://www.w3.org/1999/xlink" version="1.1"><rect x="0" y="0" width="960" height="540" fill="#041a2c"></rect><defs><linearGradient id="grad1_0" x1="43.8%" y1="0%" x2="100%" y2="100%"><stop offset="14.444444444444446%" stop-color="#fa703c" stop-opacity="1"></stop><stop offset="85.55555555555554%" stop-color="#fa703c" stop-opacity="1"></stop></linearGradient></defs><defs><linearGradient id="grad1_1" x1="43.8%" y1="0%" x2="100%" y2="100%"><stop offset="14.444444444444446%" stop-color="#fa703c" stop-opacity="1"></stop><stop offset="85.55555555555554%" stop-color="#e24e5a" stop-opacity="1"></stop></linearGradient></defs><defs><linearGradient id="grad1_2" x1="43.8%" y1="0%" x2="100%" y2="100%"><stop offset="14.444444444444446%" stop-color="#b83d6d" stop-opacity="1"></stop><stop offset="85.55555555555554%" stop-color="#e24e5a" stop-opacity="1"></stop></linearGradient></defs><defs><linearGradient id="grad1_3" x1="43.8%" y1="0%" x2="100%" y2="100%"><stop offset="14.444444444444446%" stop-color="#b83d6d" stop-opacity="1"></stop><stop offset="85.55555555555554%" stop-color="#853872" stop-opacity="1"></stop></linearGradient></defs><defs><linearGradient id="grad1_4" x1="43.8%" y1="0%" x2="100%" y2="100%"><stop offset="14.444444444444446%" stop-color="#4f3466" stop-opacity="1"></stop><stop offset="85.55555555555554%" stop-color="#853872" stop-opacity="1"></stop></linearGradient></defs><defs><linearGradient id="grad1_5" x1="43.8%" y1="0%" x2="100%" y2="100%"><stop offset="14.444444444444446%" stop-color="#4f3466" stop-opacity="1"></stop><stop offset="85.55555555555554%" stop-color="#21294d" stop-opacity="1"></stop></linearGradient></defs><defs><linearGradient id="grad1_6" x1="43.8%" y1="0%" x2="100%" y2="100%"><stop offset="14.444444444444446%" stop-color="#041a2c" stop-opacity="1"></stop><stop offset="85.55555555555554%" stop-color="#21294d" stop-opacity="1"></stop></linearGradient></defs><defs><linearGradient id="grad2_0" x1="0%" y1="0%" x2="56.3%" y2="100%"><stop offset="14.444444444444446%" stop-color="#fa703c" stop-opacity="1"></stop><stop offset="85.55555555555554%" stop-color="#fa703c" stop-opacity="1"></stop></linearGradient></defs><defs><linearGradient id="grad2_1" x1="0%" y1="0%" x2="56.3%" y2="100%"><stop offset="14.444444444444446%" stop-color="#e24e5a" stop-opacity="1"></stop><stop offset="85.55555555555554%" stop-color="#fa703c" stop-opacity="1"></stop></linearGradient></defs><defs><linearGradient id="grad2_2" x1="0%" y1="0%" x2="56.3%" y2="100%"><stop offset="14.444444444444446%" stop-color="#e24e5a" stop-opacity="1"></stop><stop offset="85.55555555555554%" stop-color="#b83d6d" stop-opacity="1"></stop></linearGradient></defs><defs><linearGradient id="grad2_3" x1="0%" y1="0%" x2="56.3%" y2="100%"><stop offset="14.444444444444446%" stop-color="#853872" stop-opacity="1"></stop><stop offset="85.55555555555554%" stop-color="#b83d6d" stop-opacity="1"></stop></linearGradient></defs><defs><linearGradient id="grad2_4" x1="0%" y1="0%" x2="56.3%" y2="100%"><stop offset="14.444444444444446%" stop-color="#853872" stop-opacity="1"></stop><stop offset="85.55555555555554%" stop-color="#4f3466" stop-opacity="1"></stop></linearGradient></defs><defs><linearGradient id="grad2_5" x1="0%" y1="0%" x2="56.3%" y2="100%"><stop offset="14.444444444444446%" stop-color="#21294d" stop-opacity="1"></stop><stop offset="85.55555555555554%" stop-color="#4f3466" stop-opacity="1"></stop></linearGradient></defs><defs><linearGradient id="grad2_6" x1="0%" y1="0%" x2="56.3%" y2="100%"><stop offset="14.444444444444446%" stop-color="#21294d" stop-opacity="1"></stop><stop offset="85.55555555555554%" stop-color="#041a2c" stop-opacity="1"></stop></linearGradient></defs><g transform="translate(960, 0)"><path d="M0 540C-56 534.7 -112 529.4 -166.9 513.6C-221.7 497.7 -275.4 471.2 -311.5 428.8C-347.6 386.3 -366.1 328 -383.5 278.6C-400.9 229.3 -417.3 188.9 -443.2 144C-469.1 99.1 -504.6 49.5 -540 0L0 0Z" fill="#0f223d"></path><path d="M0 462.9C-48 458.3 -96 453.8 -143 440.2C-190.1 426.6 -236.1 403.9 -267 367.5C-297.9 331.2 -313.8 281.1 -328.7 238.8C-343.6 196.5 -357.7 161.9 -379.9 123.4C-402.1 84.9 -432.5 42.5 -462.9 0L0 0Z" fill="#372f5b"></path><path d="M0 385.7C-40 381.9 -80 378.2 -119.2 366.8C-158.4 355.5 -196.7 336.6 -222.5 306.3C-248.3 276 -261.5 234.3 -273.9 199C-286.4 163.8 -298.1 135 -316.6 102.9C-335.1 70.8 -360.4 35.4 -385.7 0L0 0Z" fill="#6a376e"></path><path d="M0 308.6C-32 305.6 -64 302.5 -95.4 293.5C-126.7 284.4 -157.4 269.3 -178 245C-198.6 220.8 -209.2 187.4 -219.1 159.2C-229.1 131 -238.4 108 -253.3 82.3C-268.1 56.6 -288.3 28.3 -308.6 0L0 0Z" fill="#9f3a71"></path><path d="M0 231.4C-24 229.2 -48 226.9 -71.5 220.1C-95 213.3 -118 201.9 -133.5 183.8C-149 165.6 -156.9 140.6 -164.3 119.4C-171.8 98.3 -178.8 81 -189.9 61.7C-201 42.5 -216.2 21.2 -231.4 0L0 0Z" fill="#cf4365"></path><path d="M0 154.3C-16 152.8 -32 151.3 -47.7 146.7C-63.4 142.2 -78.7 134.6 -89 122.5C-99.3 110.4 -104.6 93.7 -109.6 79.6C-114.5 65.5 -119.2 54 -126.6 41.1C-134 28.3 -144.2 14.2 -154.3 0L0 0Z" fill="#f05d4d"></path><path d="M0 77.1C-8 76.4 -16 75.6 -23.8 73.4C-31.7 71.1 -39.3 67.3 -44.5 61.3C-49.7 55.2 -52.3 46.9 -54.8 39.8C-57.3 32.8 -59.6 27 -63.3 20.6C-67 14.2 -72.1 7.1 -77.1 0L0 0Z" fill="#fa703c"></path></g><g transform="translate(0, 540)"><path d="M0 -540C54.8 -518.5 109.5 -497 152 -467.9C194.6 -438.9 224.8 -402.2 276.8 -381C328.9 -359.9 402.6 -354.1 436.9 -317.4C471.1 -280.7 465.9 -212.9 476.5 -154.8C487.1 -96.7 513.5 -48.4 540 0L0 0Z" fill="#0f223d"></path><path d="M0 -462.9C46.9 -444.4 93.9 -426 130.3 -401.1C166.8 -376.2 192.7 -344.8 237.3 -326.6C281.9 -308.5 345.1 -303.6 374.5 -272.1C403.8 -240.6 399.3 -182.5 408.4 -132.7C417.5 -82.9 440.2 -41.5 462.9 0L0 0Z" fill="#372f5b"></path><path d="M0 -385.7C39.1 -370.4 78.2 -355 108.6 -334.2C139 -313.5 160.6 -287.3 197.7 -272.2C234.9 -257.1 287.6 -253 312 -226.7C336.5 -200.5 332.8 -152.1 340.3 -110.6C347.9 -69.1 366.8 -34.6 385.7 0L0 0Z" fill="#6a376e"></path><path d="M0 -308.6C31.3 -296.3 62.6 -284 86.9 -267.4C111.2 -250.8 128.5 -229.8 158.2 -217.7C187.9 -205.6 230.1 -202.4 249.6 -181.4C269.2 -160.4 266.2 -121.7 272.3 -88.5C278.3 -55.3 293.5 -27.6 308.6 0L0 0Z" fill="#9f3a71"></path><path d="M0 -231.4C23.5 -222.2 46.9 -213 65.2 -200.5C83.4 -188.1 96.4 -172.4 118.6 -163.3C140.9 -154.2 172.5 -151.8 187.2 -136C201.9 -120.3 199.7 -91.2 204.2 -66.4C208.8 -41.5 220.1 -20.7 231.4 0L0 0Z" fill="#cf4365"></path><path d="M0 -154.3C15.6 -148.1 31.3 -142 43.4 -133.7C55.6 -125.4 64.2 -114.9 79.1 -108.9C94 -102.8 115 -101.2 124.8 -90.7C134.6 -80.2 133.1 -60.8 136.1 -44.2C139.2 -27.6 146.7 -13.8 154.3 0L0 0Z" fill="#f05d4d"></path><path d="M0 -77.1C7.8 -74.1 15.6 -71 21.7 -66.8C27.8 -62.7 32.1 -57.5 39.5 -54.4C47 -51.4 57.5 -50.6 62.4 -45.3C67.3 -40.1 66.6 -30.4 68.1 -22.1C69.6 -13.8 73.4 -6.9 77.1 0L0 0Z" fill="#fa703c"></path></g></svg>